<?xml version="1.0" encoding="UTF-8"?>
<svg id="Web_Suply" xmlns="http://www.w3.org/2000/svg" version="1.1" viewBox="0 0 500 500">
  <!-- Generator: Adobe Illustrator 29.3.1, SVG Export Plug-In . SVG Version: 2.1.0 Build 151)  -->
  <defs>
    <style>
      .st0 {
        fill: #e86d6c;
      }

      .st1 {
        fill: #6795ca;
      }
    </style>
  </defs>
  <g>
    <g>
      <path class="st1" d="M302.56,160.5c0,16.05-13.01,29.06-29.06,29.06s-29.06-13.01-29.06-29.06,13.01-29.06,29.06-29.06,29.06,13.01,29.06,29.06Z"/>
      <g>
        <polygon class="st1" points="231.07 318.59 208.98 199.1 255.75 199.1 273.5 236.9 231.07 318.59"/>
        <polygon class="st1" points="315.94 318.59 338.01 199.1 291.24 199.1 273.5 236.9 315.94 318.59"/>
      </g>
    </g>
    <g>
      <path class="st0" d="M255.56,160.5c0,16.05-13.02,29.06-29.06,29.06s-29.05-13.01-29.05-29.06,13.01-29.06,29.05-29.06,29.06,13.01,29.06,29.06Z"/>
      <g>
        <polygon class="st0" points="184.06 318.59 161.99 199.1 208.76 199.1 226.5 236.9 184.06 318.59"/>
        <polygon class="st0" points="268.93 318.59 291.01 199.1 244.24 199.1 226.5 236.9 268.93 318.59"/>
      </g>
    </g>
  </g>
  <path class="st1" d="M419.28,226.63c-.38,4.14-.53,8.08-1.11,12.38-.94,4.45-1.51,9.14-2.86,13.32-1.46,4.15-2.41,8.49-4.4,12.41-1.79,4-3.43,8.06-5.79,11.74l-3.29,5.64c-1.15,1.83-2.5,3.53-3.74,5.3l-3.81,5.24-4.27,4.87c-1.44,1.58-2.8,3.26-4.31,4.77l-4.67,4.42c-3.04,3.02-6.4,5.65-9.78,8.25-3.27,2.74-6.83,5.05-10.38,7.38-3.47,2.44-7.17,4.49-10.89,6.51-1.86,1.01-3.68,2.08-5.56,3.02l-5.75,2.64-5.73,2.62-5.9,2.21c-3.93,1.46-7.86,2.93-11.92,3.96-4.04,1.09-7.99,2.46-12.12,3.2-4.1.8-8.13,1.84-12.26,2.44l-12.35,1.72,1.69-1.14-29.8,51.6-2.01,3.48-2.02-3.48-29.8-51.6,1.69,1.14c-13.55-1.99-27.02-4.89-40.04-9.35-12.96-4.6-25.52-10.43-37.28-17.71-11.65-7.46-22.43-16.38-31.7-26.8-9.23-10.41-17.01-22.38-21.95-35.63-4.94-13.2-7.21-27.51-6.27-41.65.19-3.38.24-6.71,1.1-10.35.74-3.53,1.19-7.22,2.22-10.63l3.32-10.11c1.27-3.31,2.93-6.44,4.39-9.66,6.5-12.55,14.92-24.14,25.13-33.83,2.38-2.6,5.26-4.65,7.86-7,2.65-2.31,5.34-4.58,8.28-6.5l8.62-6.03,9.08-5.27c2.97-1.87,6.17-3.3,9.33-4.79,3.18-1.44,6.28-3.11,9.53-4.36,6.56-2.41,13-5.16,19.79-6.87,13.35-4.22,27.23-6.25,41.08-7.85l10.45-.53,5.23-.24,1.31-.07.9-.02.64.02,2.54.07c6.81.26,13.43.16,20.61,1.14,3.52.4,7.08.7,10.58,1.19l10.33,1.93,5.16.96,5.09,1.36,10.18,2.74,9.94,3.5,4.98,1.77,4.83,2.15,9.65,4.37,9.27,5.16c12.17,7.2,23.85,15.59,33.69,26.1,1.26,1.27,2.56,2.52,3.77,3.83l3.42,4.2c2.18,2.87,4.75,5.45,6.59,8.58l5.89,9.16c1.66,3.24,3.19,6.56,4.77,9.85,5.85,13.39,8.8,28.05,8.86,42.71l-.02.45ZM403.92,226.18c-.38-12.5-3.34-24.73-8.25-36.22-4.83-11.55-12.4-21.94-21.01-31.28-8.56-9.48-19-17.25-29.98-24.04l-8.4-4.89-8.81-4.19-4.41-2.08-4.57-1.72-9.16-3.43-9.42-2.72-4.71-1.36-4.81-.99-9.62-1.98c-3.2-.5-6.4-.83-9.61-1.26-6.24-1.04-13.21-1.1-19.94-1.47l-2.54-.12-.64-.03c.3.02-.27.02-.36.03l-1.23.03-4.93.15-9.86.32c-13.06,1.29-26.19,2.92-38.8,6.68-6.43,1.47-12.51,3.97-18.73,6.11-3.09,1.1-6.01,2.63-9.02,3.92-2.99,1.34-6.02,2.63-8.82,4.33l-8.6,4.78-8.14,5.48c-2.79,1.74-5.31,3.8-7.81,5.9-2.45,2.15-5.2,4-7.43,6.37-9.65,8.8-17.54,19.34-23.71,30.68-1.38,2.92-2.98,5.76-4.19,8.75l-3.19,9.15c-.99,3.06-1.37,6.15-2.13,9.22-.84,2.95-.98,6.42-1.23,9.81-1.1,12.87.71,25.96,5.03,38.23,4.33,12.29,11.35,23.6,19.83,33.62,8.52,10.02,18.59,18.79,29.63,26.21,11.15,7.23,23.16,13.15,35.63,17.91,12.56,4.61,25.62,7.74,38.83,9.97l1.14.2.54.94,29.8,51.61h-4.02l29.8-51.61.52-.88,1.17-.26,11.9-2.53c3.95-.86,7.8-2.17,11.69-3.22,3.93-.97,7.65-2.6,11.44-3.91,3.84-1.27,7.49-2.96,11.14-4.61l5.51-2.45,5.3-2.79,5.3-2.81c1.74-1,3.39-2.12,5.09-3.16,3.4-2.09,6.76-4.21,9.88-6.69,3.2-2.36,6.4-4.7,9.28-7.41,2.99-2.59,5.97-5.18,8.58-8.12l4.1-4.23c1.31-1.44,2.48-3.03,3.72-4.53l3.69-4.54,3.22-4.87c1.04-1.64,2.2-3.21,3.15-4.88l2.68-5.13c1.96-3.35,3.22-6.98,4.65-10.54,1.63-3.48,2.21-7.3,3.35-10.93,1.04-3.67,1.21-7.22,1.92-10.8.38-3.84.37-8.12.58-12.18v.46Z"/>
</svg>